<svg xmlns="http://www.w3.org/2000/svg" viewBox="0 0 149.322 26.49">
    <g data-name="&lt;Group&gt;">
        <g data-name="&lt;Group&gt;">
            <path d="M28.753 6.995h1.832v13.088h-1.832zM32.889 10.546q.6-.151 1.6-.321a13.7 13.7 0 0 1 2.294-.17 4.317 4.317 0 0 1 1.586.255 2.788 2.788 0 0 1 1.077.746q.131-.094.415-.264a4.559 4.559 0 0 1 .7-.33 7.4 7.4 0 0 1 .926-.284 4.686 4.686 0 0 1 1.1-.123 4.448 4.448 0 0 1 1.851.33 2.658 2.658 0 0 1 1.124.935 3.641 3.641 0 0 1 .548 1.435 10.806 10.806 0 0 1 .142 1.813v5.51h-1.756v-5.136a11.234 11.234 0 0 0-.085-1.492 2.89 2.89 0 0 0-.321-1.039 1.471 1.471 0 0 0-.642-.614 2.4 2.4 0 0 0-1.048-.2 3.889 3.889 0 0 0-1.463.236 2.885 2.885 0 0 0-.784.425 6.561 6.561 0 0 1 .227 1.077 9.628 9.628 0 0 1 .076 1.227v5.516h-1.758v-5.136a10.1 10.1 0 0 0-.094-1.492 3.011 3.011 0 0 0-.33-1.039 1.475 1.475 0 0 0-.642-.614 2.34 2.34 0 0 0-1.029-.2q-.265 0-.567.019t-.576.046a8.349 8.349 0 0 0-.8.122v8.294h-1.756zM48.283 10.546q.6-.151 1.6-.321a13.7 13.7 0 0 1 2.294-.17 4.316 4.316 0 0 1 1.586.255 2.789 2.789 0 0 1 1.077.746q.131-.094.415-.265a4.556 4.556 0 0 1 .7-.33 7.4 7.4 0 0 1 .926-.284 4.685 4.685 0 0 1 1.1-.123 4.447 4.447 0 0 1 1.851.33 2.658 2.658 0 0 1 1.124.935 3.641 3.641 0 0 1 .548 1.435 10.805 10.805 0 0 1 .142 1.813v5.511H59.89v-5.136a11.239 11.239 0 0 0-.085-1.492 2.889 2.889 0 0 0-.321-1.039 1.472 1.472 0 0 0-.642-.614 2.4 2.4 0 0 0-1.048-.2 3.889 3.889 0 0 0-1.463.236 2.885 2.885 0 0 0-.784.425 6.569 6.569 0 0 1 .227 1.077 9.619 9.619 0 0 1 .076 1.227v5.516h-1.757v-5.136a10.109 10.109 0 0 0-.094-1.492 3.01 3.01 0 0 0-.33-1.039 1.475 1.475 0 0 0-.642-.614 2.34 2.34 0 0 0-1.029-.2q-.265 0-.567.019t-.576.046a8.349 8.349 0 0 0-.8.122v8.294h-1.772zM63.157 15.193a6.262 6.262 0 0 1 .378-2.275 4.757 4.757 0 0 1 1-1.615 4.064 4.064 0 0 1 1.435-.963 4.483 4.483 0 0 1 1.662-.321 3.78 3.78 0 0 1 3.04 1.237 5.687 5.687 0 0 1 1.058 3.768v.293a2.8 2.8 0 0 1-.019.33h-6.723a3.6 3.6 0 0 0 .888 2.323 3.25 3.25 0 0 0 2.417.793 6.432 6.432 0 0 0 1.558-.16 5.569 5.569 0 0 0 .954-.312l.245 1.473a5.237 5.237 0 0 1-1.124.359 8.016 8.016 0 0 1-1.823.189 5.785 5.785 0 0 1-2.219-.387 4.139 4.139 0 0 1-1.539-1.067 4.35 4.35 0 0 1-.9-1.615 6.815 6.815 0 0 1-.288-2.05zm6.741-.963a2.948 2.948 0 0 0-.595-1.954 2.048 2.048 0 0 0-1.689-.765 2.318 2.318 0 0 0-1.067.236 2.521 2.521 0 0 0-.784.614 2.83 2.83 0 0 0-.5.869 4.287 4.287 0 0 0-.236 1zM76.978 10.054q.227 0 .519.028t.576.075q.283.048.519.094a3.22 3.22 0 0 1 .349.085l-.3 1.53a5.911 5.911 0 0 0-.689-.179 6.048 6.048 0 0 0-1.237-.1 4.6 4.6 0 0 0-.972.1q-.481.1-.632.142v8.253h-1.756v-9.404a11.93 11.93 0 0 1 1.548-.425 9.94 9.94 0 0 1 2.075-.199zM82.328 18.817a3.455 3.455 0 0 0 1.6-.283.958.958 0 0 0 .52-.906 1.2 1.2 0 0 0-.509-1.02 8.094 8.094 0 0 0-1.681-.85q-.566-.227-1.086-.463a3.786 3.786 0 0 1-.9-.557 2.427 2.427 0 0 1-.6-.774 2.474 2.474 0 0 1-.227-1.114 2.5 2.5 0 0 1 .963-2.068 4.111 4.111 0 0 1 2.625-.765 7.425 7.425 0 0 1 .831.046q.415.046.774.113t.632.142q.274.076.425.132l-.321 1.511a4.469 4.469 0 0 0-.888-.312 5.744 5.744 0 0 0-1.454-.16 2.688 2.688 0 0 0-1.284.293.97.97 0 0 0-.547.916 1.247 1.247 0 0 0 .123.566 1.3 1.3 0 0 0 .378.444 3.109 3.109 0 0 0 .632.368q.378.17.906.359.7.264 1.247.519a3.922 3.922 0 0 1 .934.595 2.28 2.28 0 0 1 .595.822 2.972 2.972 0 0 1 .208 1.18 2.343 2.343 0 0 1-1.01 2.06 5.034 5.034 0 0 1-2.88.7 7.522 7.522 0 0 1-2.039-.217 10.393 10.393 0 0 1-1-.33l.321-1.511q.3.113.963.34a5.557 5.557 0 0 0 1.749.224zM88.444 8.487a1.127 1.127 0 0 1-.8-.312 1.235 1.235 0 0 1 0-1.681 1.189 1.189 0 0 1 1.605 0 1.234 1.234 0 0 1 0 1.681 1.128 1.128 0 0 1-.805.312zm.887 11.6h-1.756v-9.82h1.756zM99.235 10.262a49.454 49.454 0 0 1-1.728 5.288q-.991 2.531-1.917 4.533h-1.586q-.926-2-1.917-4.533a49.419 49.419 0 0 1-1.728-5.288h1.888q.227.926.538 1.974t.661 2.077q.349 1.029.708 1.992t.68 1.718q.321-.755.679-1.718t.708-1.992q.349-1.029.661-2.077t.538-1.974zM99.445 15.193a6.258 6.258 0 0 1 .378-2.275 4.756 4.756 0 0 1 1-1.615 4.063 4.063 0 0 1 1.435-.963 4.483 4.483 0 0 1 1.662-.321 3.781 3.781 0 0 1 3.041 1.237 5.688 5.688 0 0 1 1.057 3.768v.293a2.781 2.781 0 0 1-.019.33h-6.723a3.6 3.6 0 0 0 .888 2.323 3.25 3.25 0 0 0 2.417.793 6.433 6.433 0 0 0 1.558-.16 5.579 5.579 0 0 0 .954-.312l.245 1.473a5.233 5.233 0 0 1-1.124.359 8.016 8.016 0 0 1-1.823.189 5.783 5.783 0 0 1-2.219-.387 4.14 4.14 0 0 1-1.539-1.067 4.35 4.35 0 0 1-.9-1.615 6.816 6.816 0 0 1-.288-2.05zm6.741-.963a2.948 2.948 0 0 0-.595-1.954 2.048 2.048 0 0 0-1.689-.765 2.317 2.317 0 0 0-1.067.236 2.52 2.52 0 0 0-.784.614 2.827 2.827 0 0 0-.5.869 4.289 4.289 0 0 0-.236 1zM124.824 13.529a7.587 7.587 0 0 1-.529 2.955 5.468 5.468 0 0 1-1.491 2.081 6.323 6.323 0 0 1-2.3 1.227 10.126 10.126 0 0 1-2.946.406q-.793 0-1.746-.066a10.314 10.314 0 0 1-1.728-.255V7.184a10.367 10.367 0 0 1 1.728-.255q.953-.066 1.746-.066a10.133 10.133 0 0 1 2.946.406 6.322 6.322 0 0 1 2.3 1.227 5.472 5.472 0 0 1 1.492 2.077 7.587 7.587 0 0 1 .528 2.956zm-7.119 5.061a5.08 5.08 0 1 0 0-10.123q-.775 0-1.2.019t-.595.038v10.009q.17.019.595.038t1.2.02zM129.591 10.017a5.094 5.094 0 0 1 1.785.274 2.9 2.9 0 0 1 1.171.774 2.941 2.941 0 0 1 .632 1.19 5.772 5.772 0 0 1 .189 1.52v6.138l-.633.1q-.406.066-.915.123t-1.105.1q-.595.047-1.18.046a6.474 6.474 0 0 1-1.529-.17 3.422 3.422 0 0 1-1.209-.539 2.463 2.463 0 0 1-.793-.972 3.4 3.4 0 0 1-.283-1.454 2.8 2.8 0 0 1 .33-1.4 2.636 2.636 0 0 1 .9-.944 4.159 4.159 0 0 1 1.322-.529 7.2 7.2 0 0 1 1.586-.17 5.484 5.484 0 0 1 .548.028q.283.028.538.076c.17.031.318.06.444.085s.214.044.264.057v-.491a3.97 3.97 0 0 0-.095-.859 1.975 1.975 0 0 0-.34-.755 1.725 1.725 0 0 0-.671-.529 2.628 2.628 0 0 0-1.1-.2 8.321 8.321 0 0 0-1.521.123 5.337 5.337 0 0 0-.972.255l-.208-1.454a5.434 5.434 0 0 1 1.134-.293 9.8 9.8 0 0 1 1.711-.13zm.151 8.8q.623 0 1.1-.028a4.848 4.848 0 0 0 .8-.1v-2.931a2.258 2.258 0 0 0-.614-.16 6.836 6.836 0 0 0-1.029-.066 6.636 6.636 0 0 0-.84.056 2.6 2.6 0 0 0-.812.236 1.746 1.746 0 0 0-.614.491 1.29 1.29 0 0 0-.245.822 1.411 1.411 0 0 0 .6 1.313 3.147 3.147 0 0 0 1.642.368zM137.066 10.262h3.72v1.473h-3.72v4.535a5.45 5.45 0 0 0 .113 1.218 1.827 1.827 0 0 0 .34.755 1.224 1.224 0 0 0 .567.387 2.507 2.507 0 0 0 .793.113 3.728 3.728 0 0 0 1.274-.179q.481-.179.671-.255l.34 1.454a6.474 6.474 0 0 1-.926.33 5.256 5.256 0 0 1-1.51.2 4.575 4.575 0 0 1-1.652-.255 2.4 2.4 0 0 1-1.049-.764 3.063 3.063 0 0 1-.557-1.256 8.267 8.267 0 0 1-.16-1.728V7.524l1.756-.3zM145.546 10.017a5.1 5.1 0 0 1 1.785.274 2.9 2.9 0 0 1 1.171.774 2.939 2.939 0 0 1 .632 1.19 5.749 5.749 0 0 1 .189 1.52v6.138l-.633.1q-.406.066-.916.123t-1.1.1q-.6.047-1.18.046a6.468 6.468 0 0 1-1.529-.17 3.419 3.419 0 0 1-1.209-.539 2.463 2.463 0 0 1-.794-.972 3.411 3.411 0 0 1-.283-1.454 2.8 2.8 0 0 1 .331-1.4 2.632 2.632 0 0 1 .9-.944 4.166 4.166 0 0 1 1.322-.529 7.2 7.2 0 0 1 1.586-.17 5.478 5.478 0 0 1 .548.028c.189.019.368.044.538.076l.444.085c.126.025.214.044.264.057v-.491a3.975 3.975 0 0 0-.094-.86 1.972 1.972 0 0 0-.34-.754 1.722 1.722 0 0 0-.671-.529 2.625 2.625 0 0 0-1.1-.2 8.318 8.318 0 0 0-1.52.123 5.348 5.348 0 0 0-.972.255l-.208-1.454a5.421 5.421 0 0 1 1.133-.293 9.807 9.807 0 0 1 1.706-.13zm.151 8.8q.623 0 1.1-.028a4.831 4.831 0 0 0 .8-.1v-2.931a2.256 2.256 0 0 0-.614-.16 6.827 6.827 0 0 0-1.029-.066 6.645 6.645 0 0 0-.84.056 2.592 2.592 0 0 0-.812.236 1.739 1.739 0 0 0-.614.491 1.291 1.291 0 0 0-.246.822 1.41 1.41 0 0 0 .6 1.313 3.147 3.147 0 0 0 1.644.368z" data-name="&lt;Compound Path&gt;"/>
        </g>
        <g data-name="&lt;Group&gt;">
            <path d="M20.334 4.69c-.109-.574-1.176-1.848-1.343-1.6-.077.113.177.618.735 1.266.524.586.6.487.613.418a.274.274 0 0 0-.005-.08M16.717 1.578c-.269-.614-1.652-1.3-1.828-.9-.1.223.362.725 1.127 1.063.645.259.817.106.7-.159M7.324 1.659c-.619-.495-1.966.085-1.872.806.061.469.794.674 1.561.245.659-.427.547-.862.311-1.051M3.695 4.872c-.71-.32-1.719.639-1.478 1.4.176.561.983.585 1.568-.159.408-.6.259-1.089-.09-1.246M1.275 9.478c-.778-.125-1.387 1.167-.893 1.893.361.53 1.125.317 1.412-.626.172-.741-.139-1.206-.519-1.267M.628 14.933c-.764.1-.856 1.513-.133 2.05.478.355 1.168.057 1.083-.967-.115-.766-.575-1.129-.949-1.083M1.949 19.996c-.649.264-.334 1.376.481 1.7.684.271 1.141-.271.814-.967-.012-.027-.031-.061-.045-.087a1.118 1.118 0 0 0-1.25-.645M4.864 23.81c-.457.345.049 1.058.847 1.194.715.121 1.138-.306.781-.788a1.17 1.17 0 0 0-.242-.235 1.277 1.277 0 0 0-1.386-.17M8.918 25.87c-.266.346.312.724 1.166.593.671-.1 1.024-.47.7-.726a1.185 1.185 0 0 0-.491-.183 1.608 1.608 0 0 0-1.375.317M13.593 25.842c-.1.284.416.289 1.011.009.646-.3 1.046-.768.737-.855a1.34 1.34 0 0 0-.6.085 2.061 2.061 0 0 0-1.147.762M17.753 23.746c.008.2.478-.081.914-.556.4-.434.625-.859.464-.874-.057-.005-.212.041-.617.41-.507.481-.767.878-.762 1.02M20.27 6.041c.019-.553-.854-1.663-1.139-1.448-.158.119.029.693.505 1.254.405.445.625.435.634.194M17.086 3.27c-.157-.618-1.3-1.25-1.564-.866-.172.247.215.833.894 1.141.6.235.731-.035.671-.275M9.018 3.391c-.541-.522-1.686-.114-1.656.59.022.508.75.833 1.437.456.564-.372.434-.839.22-1.046M5.742 6.233A1 1 0 0 0 4.394 7.34c.151.589.994.726 1.523.065a.768.768 0 0 0-.174-1.174M3.663 10.242c-.735-.143-1.307.877-.874 1.56.349.549 1.187.417 1.45-.425a.865.865 0 0 0-.576-1.135M3.129 14.961c-.732.09-.89 1.244-.239 1.738.527.4 1.259.023 1.195-.833a.948.948 0 0 0-.956-.9M4.292 19.319c-.606.269-.428 1.212.28 1.483a.705.705 0 0 0 .954-.945c-.01-.023-.026-.052-.037-.074a.994.994 0 0 0-1.2-.464M6.82 22.601c-.457.39-.048 1.053.683 1.11.712.055 1.132-.545.7-1a1.216 1.216 0 0 0-.113-.1 1.1 1.1 0 0 0-1.272-.007M10.309 24.341c-.272.429.29.779.985.613.651-.155.945-.661.542-.933a.859.859 0 0 0-.321-.118 1.3 1.3 0 0 0-1.207.437M14.308 24.284c-.085.38.493.4 1.048.036.52-.341.694-.81.332-.9a.89.89 0 0 0-.435.047 1.488 1.488 0 0 0-.945.813M17.847 22.469c.062.3.644-.041 1-.587.269-.408.278-.731.018-.692a1.114 1.114 0 0 0-.465.279 1.467 1.467 0 0 0-.558 1M19.897 7.473c.121-.53-.55-1.485-.9-1.276-.228.137-.146.767.254 1.25.36.386.593.248.644.026M17.211 5.204c-.065-.638-.951-1.217-1.265-.827-.225.28.072.968.647 1.238.473.177.646-.134.618-.41M10.487 5.379c-.45-.52-1.349-.341-1.416.282a.912.912 0 0 0 1.319.762.684.684 0 0 0 .1-1.044M7.791 7.729a.784.784 0 0 0-1.208.792.886.886 0 0 0 1.5.306.787.787 0 0 0-.29-1.1M6.106 11.057a.8.8 0 0 0-.854 1.2.863.863 0 0 0 1.515-.214.849.849 0 0 0-.661-.987M5.702 14.939a.777.777 0 0 0-.354 1.4.849.849 0 0 0 1.335-.7.9.9 0 0 0-.98-.707M6.69 18.492a.661.661 0 0 0 .064 1.257c.614.209 1.391-.371 1.089-1a.938.938 0 0 0-1.153-.261M8.774 21.107a.566.566 0 0 0 .409 1.013c.736.024 1.181-.785.8-1.149-.013-.013-.032-.027-.047-.039a1.024 1.024 0 0 0-1.161.176M11.627 22.543c-.252.462.123.819.692.658.689-.194.919-.935.5-1.173a.554.554 0 0 0-.162-.055 1.158 1.158 0 0 0-1.031.57M14.857 22.457c-.066.473.452.506.867.172.512-.413.491-1.027.081-1.068a.532.532 0 0 0-.215.029 1.235 1.235 0 0 0-.733.868M17.686 20.886c.116.388.636.106.874-.365.256-.5.04-.862-.3-.749a.678.678 0 0 0-.229.142 1.12 1.12 0 0 0-.344.972M13.835 5.022a.913.913 0 0 1-.091.065.676.676 0 0 1-.314.1 1.115 1.115 0 0 1-1.013-.6c-.273-.579.312-.928.893-.716.031.011.109.043.139.057a1.028 1.028 0 0 1 .5.477.488.488 0 0 1-.114.617zM13.025 2.891c-.022.014-.069.039-.092.052a1.114 1.114 0 0 1-.384.1 1.306 1.306 0 0 1-1.2-.509c-.307-.529.4-.877 1.078-.68.033.009.127.039.127.039a1.156 1.156 0 0 1 .617.44.362.362 0 0 1-.146.558zM12.067.991a.77.77 0 0 1-.086.038 2.073 2.073 0 0 1-.446.1 1.622 1.622 0 0 1-1.381-.431c-.322-.446.413-.836 1.228-.651.029.008.057.013.131.035a1.4 1.4 0 0 1 .715.4c.155.203.092.359-.161.509z" data-name="&lt;Path&gt;"/>
        </g>
    </g>
</svg>
